<?xml version="1.0" encoding="UTF-8" standalone="no"?>
<!-- Created with Inkscape (http://www.inkscape.org/) -->

<svg
   width="182.56015mm"
   height="121.31796mm"
   viewBox="0 0 182.56014 121.31795"
   version="1.1"
   id="svg8"
   inkscape:version="1.3.2 (1:1.3.2+202311252150+091e20ef0f)"
   sodipodi:docname="interpolation.svg"
   xmlns:inkscape="http://www.inkscape.org/namespaces/inkscape"
   xmlns:sodipodi="http://sodipodi.sourceforge.net/DTD/sodipodi-0.dtd"
   xmlns="http://www.w3.org/2000/svg"
   xmlns:svg="http://www.w3.org/2000/svg"
   xmlns:rdf="http://www.w3.org/1999/02/22-rdf-syntax-ns#"
   xmlns:cc="http://creativecommons.org/ns#"
   xmlns:dc="http://purl.org/dc/elements/1.1/">
  <sodipodi:namedview
     id="base"
     pagecolor="#ffffff"
     bordercolor="#666666"
     borderopacity="1.0"
     inkscape:pageopacity="0.0"
     inkscape:pageshadow="2"
     inkscape:zoom="1.4422423"
     inkscape:cx="310.9741"
     inkscape:cy="449.64705"
     inkscape:document-units="mm"
     inkscape:current-layer="layer1"
     showgrid="false"
     inkscape:object-paths="true"
     fit-margin-top="0"
     fit-margin-left="0"
     fit-margin-right="0"
     fit-margin-bottom="0"
     inkscape:object-nodes="true"
     inkscape:snap-smooth-nodes="true"
     inkscape:snap-nodes="false"
     inkscape:snap-intersection-paths="true"
     inkscape:window-width="1920"
     inkscape:window-height="1043"
     inkscape:window-x="0"
     inkscape:window-y="0"
     inkscape:window-maximized="1"
     inkscape:snap-grids="false"
     inkscape:showpageshadow="2"
     inkscape:pagecheckerboard="0"
     inkscape:deskcolor="#d1d1d1" />
  <defs
     id="defs2">
    <marker
       inkscape:stockid="Arrow1Lend"
       orient="auto"
       refY="0"
       refX="0"
       id="Arrow1Lend"
       style="overflow:visible"
       inkscape:isstock="true">
      <path
         id="path2768"
         d="M 0,0 5,-5 -12.5,0 5,5 Z"
         style="fill:#000000;fill-opacity:1;fill-rule:evenodd;stroke:#000000;stroke-width:1.00000003pt;stroke-opacity:1"
         transform="matrix(-0.8,0,0,-0.8,-10,0)"
         inkscape:connector-curvature="0" />
    </marker>
    <marker
       inkscape:stockid="Arrow1Lstart"
       orient="auto"
       refY="0"
       refX="0"
       id="Arrow1Lstart"
       style="overflow:visible"
       inkscape:isstock="true">
      <path
         id="path2765"
         d="M 0,0 5,-5 -12.5,0 5,5 Z"
         style="fill:#000000;fill-opacity:1;fill-rule:evenodd;stroke:#000000;stroke-width:1.00000003pt;stroke-opacity:1"
         transform="matrix(0.8,0,0,0.8,10,0)"
         inkscape:connector-curvature="0" />
    </marker>
    <inkscape:path-effect
       effect="bspline"
       id="path-effect817"
       is_visible="true"
       weight="33.333333"
       steps="2"
       helper_size="0"
       apply_no_weight="true"
       apply_with_weight="true"
       only_selected="false" />
  </defs>
  <metadata
     id="metadata5">
    <rdf:RDF>
      <cc:Work
         rdf:about="">
        <dc:format>image/svg+xml</dc:format>
        <dc:type
           rdf:resource="http://purl.org/dc/dcmitype/StillImage" />
        <dc:title />
      </cc:Work>
    </rdf:RDF>
  </metadata>
  <g
     inkscape:label="Layer 1"
     inkscape:groupmode="layer"
     id="layer1"
     transform="translate(217.18578,-149.55287)">
    <path
       id="path3139"
       style="opacity:0.3;fill:#008080;fill-opacity:1;stroke:#00aa00;stroke-width:0.145608px;stroke-linecap:butt;stroke-linejoin:miter;stroke-opacity:1"
       d="m -35.626977,197.708 v 72.59799 H -166.11458 m 0.71285,0.33 c 0.15142,-13.91103 4.12218,-24.2128 17.10591,-34.43356 12.68021,-13.25758 22.31828,-17.63929 44.52497,-24.76228 26.547843,-8.12352 43.011018,-11.09527 68.12515,-13.72102"
       inkscape:connector-curvature="0"
       sodipodi:nodetypes="ccccccc" />
    <circle
       style="opacity:1;fill:#ff0000;fill-opacity:1;fill-rule:evenodd;stroke:#ff0000;stroke-width:0.34615386;stroke-miterlimit:4;stroke-dasharray:none;stroke-dashoffset:0;stroke-opacity:1"
       id="path2285-0-8"
       cx="-166.05667"
       cy="268.62082"
       r="2.0769231" />
    <path
       style="fill:none;stroke:#fd0000;stroke-width:0.67913282;stroke-linecap:butt;stroke-linejoin:miter;stroke-miterlimit:4;stroke-dasharray:none;stroke-opacity:1"
       d="m -165.49544,266.46023 5.89152,-19.30456"
       id="path2326"
       inkscape:connector-curvature="0"
       inkscape:transform-center-x="2.953209"
       inkscape:transform-center-y="9.3651436" />
    <path
       id="path5616"
       inkscape:label="MajorXDiv1"
       style="fill:none;stroke:#000000;stroke-width:0.46769479"
       d="M -193.45492,149.96632 V 270.47064"
       inkscape:connector-curvature="0" />
    <path
       id="path5618"
       inkscape:label="MajorXDiv2"
       style="fill:none;stroke:#000000;stroke-width:0.46769479"
       d="M -170.76502,149.96632 V 270.47064"
       inkscape:connector-curvature="0" />
    <path
       id="path5620"
       inkscape:label="MajorXDiv3"
       style="fill:none;stroke:#000000;stroke-width:0.46769479"
       d="M -148.07512,149.96632 V 270.47064"
       inkscape:connector-curvature="0" />
    <path
       style="fill:none;stroke:#fd0000;stroke-width:1.07711327;stroke-linecap:butt;stroke-linejoin:miter;stroke-miterlimit:4;stroke-dasharray:none;stroke-opacity:1"
       d="m -158.37333,245.41066 25.18051,-22.14565"
       id="path2326-9-7-7"
       inkscape:connector-curvature="0"
       inkscape:transform-center-x="-13.285393"
       inkscape:transform-center-y="-10.900209" />
    <path
       id="path5622"
       inkscape:label="MajorXDiv4"
       style="fill:none;stroke:#000000;stroke-width:0.46769479"
       d="M -125.38523,149.96632 V 270.47064"
       inkscape:connector-curvature="0" />
    <path
       id="path5624"
       inkscape:label="MajorXDiv5"
       style="fill:none;stroke:#000000;stroke-width:0.46769479"
       d="M -102.69532,149.95287 V 270.45719"
       inkscape:connector-curvature="0" />
    <path
       id="path5626"
       inkscape:label="MajorXDiv6"
       style="fill:none;stroke:#000000;stroke-width:0.46769479"
       d="M -80.005429,149.96632 V 270.47064"
       inkscape:connector-curvature="0" />
    <path
       id="path5628"
       inkscape:label="MajorXDiv7"
       style="fill:none;stroke:#000000;stroke-width:0.46769479"
       d="M -57.315533,149.96632 V 270.47064"
       inkscape:connector-curvature="0" />
    <path
       id="path5632"
       inkscape:label="MajorYDiv1"
       style="fill:none;stroke:#000000;stroke-width:0.46769479"
       d="M -216.14482,174.06718 H -34.625628"
       inkscape:connector-curvature="0" />
    <g
       id="g2">
      <ellipse
         style="opacity:0.9;fill:#000000;fill-opacity:1;fill-rule:evenodd;stroke:#000000;stroke-width:0.34259;stroke-dasharray:none;stroke-opacity:1"
         id="path88"
         cx="-193.05548"
         cy="173.89732"
         rx="8.3280134"
         ry="8.339303" />
      <g
         inkscape:label=""
         transform="matrix(2.8448271,0,0,2.8448271,-198.05549,169.35967)"
         id="g116">
        <g
           id="g115"
           transform="matrix(0.352778,0,0,0.352778,-0.857426,-0.623976)">
          <g
             style="fill:#ffffff;fill-opacity:1"
             id="g112">
            <g
               id="g111"
               transform="translate(1.993,8.8000002)">
              <path
                 style="stroke:none"
                 d="M 6.75,-1.609375 H 6.5 c -0.046875,0.25 -0.09375,0.484375 -0.1875,0.71875 -0.046875,0.15625 -0.078125,0.25 -0.65625,0.25 H 4.859375 C 5,-1.203125 5.296875,-1.6875 5.75,-2.34375 c 0.46875,-0.703125 0.875,-1.390625 0.875,-2.1875 0,-1.375 -1.34375,-2.5 -3.03125,-2.5 -1.703125,0 -3.03125,1.140625 -3.03125,2.5 0,0.796875 0.40625,1.484375 0.875,2.1875 0.4375,0.65625 0.75,1.140625 0.890625,1.703125 H 1.53125 C 0.953125,-0.640625 0.921875,-0.734375 0.875,-0.875 0.78125,-1.109375 0.734375,-1.359375 0.6875,-1.609375 h -0.25 L 0.765625,0 h 1.59375 c 0.21875,0 0.25,0 0.25,-0.203125 0,-0.703125 -0.3125,-1.578125 -0.53125,-2.21875 -0.21875,-0.578125 -0.5,-1.359375 -0.5,-2.109375 0,-1.59375 1.109375,-2.28125 2.015625,-2.28125 0.953125,0 2.015625,0.71875 2.015625,2.28125 0,0.75 -0.28125,1.5 -0.5625,2.3125 -0.15625,0.421875 -0.46875,1.328125 -0.46875,2.015625 C 4.578125,0 4.609375,0 4.828125,0 h 1.59375 z m 0,0"
                 id="path110" />
            </g>
          </g>
          <g
             style="fill:#ffffff;fill-opacity:1"
             id="g114">
            <g
               id="g113"
               transform="translate(9.1879997,10.294)">
              <path
                 style="stroke:none"
                 d="M 2.84375,-2.75 H 3.515625 C 3.65625,-2.75 3.75,-2.75 3.75,-2.90625 3.75,-3 3.65625,-3 3.53125,-3 H 2.890625 c 0.15625,-0.890625 0.203125,-1.203125 0.265625,-1.40625 0.03125,-0.15625 0.1875,-0.296875 0.359375,-0.296875 0,0 0.1875,0 0.328125,0.078125 -0.296875,0.09375 -0.3125,0.34375 -0.3125,0.375 0,0.15625 0.125,0.265625 0.28125,0.265625 0.1875,0 0.390625,-0.15625 0.390625,-0.421875 0,-0.328125 -0.328125,-0.5 -0.6875,-0.5 -0.3125,0 -0.65625,0.171875 -0.84375,0.515625 C 2.53125,-4.125 2.484375,-3.8125 2.328125,-3 H 1.78125 c -0.140625,0 -0.234375,0 -0.234375,0.15625 0,0.09375 0.09375,0.09375 0.21875,0.09375 H 2.28125 c 0,0.046875 -0.4375,2.546875 -0.609375,3.296875 -0.03125,0.15625 -0.15625,0.671875 -0.484375,0.671875 -0.015625,0 -0.171875,0 -0.3125,-0.078125 0.28125,-0.09375 0.3125,-0.34375 0.3125,-0.375 C 1.1875,0.609375 1.0625,0.5 0.90625,0.5 c -0.1875,0 -0.390625,0.15625 -0.390625,0.421875 0,0.3125 0.328125,0.5 0.671875,0.5 0.4375,0 0.75,-0.453125 0.828125,-0.609375 0.25,-0.46875 0.421875,-1.328125 0.4375,-1.40625 z m 0,0"
                 id="path112" />
            </g>
          </g>
        </g>
      </g>
    </g>
    <path
       id="path5634"
       inkscape:label="MajorYDiv2"
       style="fill:none;stroke:#000000;stroke-width:0.46769479"
       d="M -216.14482,198.16805 H -34.625628"
       inkscape:connector-curvature="0" />
    <path
       id="path5636"
       inkscape:label="MajorYDiv3"
       style="fill:none;stroke:#000000;stroke-width:0.46769479"
       d="M -216.14482,222.26891 H -34.625628"
       inkscape:connector-curvature="0" />
    <path
       id="path5638"
       inkscape:label="MajorYDiv4"
       style="fill:none;stroke:#000000;stroke-width:0.46769479"
       d="M -216.14482,246.36977 H -34.625628"
       inkscape:connector-curvature="0" />
    <g
       id="g1"
       transform="translate(22.052518,1.8160897)">
      <ellipse
         style="opacity:0.9;fill:#000000;fill-opacity:1;fill-rule:evenodd;stroke:#000000;stroke-width:0.34259;stroke-dasharray:none;stroke-opacity:1"
         id="path88-6"
         cx="-79.305222"
         cy="243.78847"
         rx="8.3280134"
         ry="8.339303" />
      <g
         inkscape:label=""
         transform="matrix(3.1060723,0,0,3.1060723,-84.805221,239.08344)"
         id="g172">
        <g
           id="g171"
           transform="matrix(0.352778,0,0,0.352778,-0.857426,-0.623976)">
          <g
             style="fill:#fff000;fill-opacity:1"
             id="g168">
            <g
               id="g167"
               transform="translate(1.993,8.8000002)">
              <path
                 style="stroke:none"
                 d="M 6.75,-1.609375 H 6.5 c -0.046875,0.25 -0.09375,0.484375 -0.1875,0.71875 -0.046875,0.15625 -0.078125,0.25 -0.65625,0.25 H 4.859375 C 5,-1.203125 5.296875,-1.6875 5.75,-2.34375 c 0.46875,-0.703125 0.875,-1.390625 0.875,-2.1875 0,-1.375 -1.34375,-2.5 -3.03125,-2.5 -1.703125,0 -3.03125,1.140625 -3.03125,2.5 0,0.796875 0.40625,1.484375 0.875,2.1875 0.4375,0.65625 0.75,1.140625 0.890625,1.703125 H 1.53125 C 0.953125,-0.640625 0.921875,-0.734375 0.875,-0.875 0.78125,-1.109375 0.734375,-1.359375 0.6875,-1.609375 h -0.25 L 0.765625,0 h 1.59375 c 0.21875,0 0.25,0 0.25,-0.203125 0,-0.703125 -0.3125,-1.578125 -0.53125,-2.21875 -0.21875,-0.578125 -0.5,-1.359375 -0.5,-2.109375 0,-1.59375 1.109375,-2.28125 2.015625,-2.28125 0.953125,0 2.015625,0.71875 2.015625,2.28125 0,0.75 -0.28125,1.5 -0.5625,2.3125 -0.15625,0.421875 -0.46875,1.328125 -0.46875,2.015625 C 4.578125,0 4.609375,0 4.828125,0 h 1.59375 z m 0,0"
                 id="path166" />
            </g>
          </g>
          <g
             style="fill:#fff000;fill-opacity:1"
             id="g170">
            <g
               id="g169"
               transform="translate(9.1879997,10.294)">
              <path
                 style="stroke:none"
                 d="m 3,-2.625 c -0.171875,0.046875 -0.296875,0.1875 -0.296875,0.328125 0,0.171875 0.140625,0.234375 0.234375,0.234375 0.078125,0 0.34375,-0.046875 0.34375,-0.40625 0,-0.453125 -0.5,-0.609375 -0.9375,-0.609375 -1.078125,0 -1.28125,0.8125 -1.28125,1.015625 0,0.265625 0.15625,0.4375 0.25,0.515625 0.171875,0.140625 0.296875,0.171875 0.78125,0.25 0.15625,0.03125 0.59375,0.109375 0.59375,0.453125 0,0.125 -0.078125,0.390625 -0.359375,0.5625 C 2.046875,-0.125 1.703125,-0.125 1.625,-0.125 1.34375,-0.125 0.953125,-0.1875 0.78125,-0.421875 1.015625,-0.453125 1.171875,-0.625 1.171875,-0.8125 c 0,-0.171875 -0.125,-0.265625 -0.265625,-0.265625 -0.203125,0 -0.40625,0.171875 -0.40625,0.46875 0,0.421875 0.4375,0.671875 1.109375,0.671875 1.296875,0 1.53125,-0.875 1.53125,-1.140625 0,-0.640625 -0.703125,-0.765625 -0.96875,-0.8125 -0.0625,-0.015625 -0.234375,-0.046875 -0.28125,-0.0625 -0.25,-0.046875 -0.375,-0.1875 -0.375,-0.34375 0,-0.15625 0.125,-0.34375 0.28125,-0.453125 0.1875,-0.109375 0.421875,-0.125 0.546875,-0.125 0.140625,0 0.5,0.015625 0.65625,0.25 z m 0,0"
                 id="path168" />
            </g>
          </g>
        </g>
      </g>
    </g>
    <rect
       height="120.50432"
       style="fill:none;stroke:#000000;stroke-width:0.70154226"
       width="181.5192"
       x="-216.83501"
       y="149.95287"
       inkscape:label="Border"
       id="rect5828" />
    <path
       style="fill:none;stroke:#fd0000;stroke-width:1.07141399;stroke-linecap:butt;stroke-linejoin:miter;stroke-miterlimit:4;stroke-dasharray:none;stroke-opacity:1"
       d="m -68.298419,202.17 31.419763,-4.9705"
       id="path2326-6-3"
       inkscape:connector-curvature="0"
       inkscape:transform-center-x="-15.818058"
       inkscape:transform-center-y="-2.4612198" />
    <circle
       style="opacity:1;fill:#000000;fill-opacity:0.95098039;fill-rule:evenodd;stroke:#000000;stroke-width:0.34615386;stroke-miterlimit:4;stroke-dasharray:none;stroke-dashoffset:0;stroke-opacity:1"
       id="path2285-88-1"
       cx="-159.42006"
       cy="234.31934"
       r="2.0769231" />
    <circle
       style="opacity:1;fill:#000000;fill-opacity:0.95098039;fill-rule:evenodd;stroke:#000000;stroke-width:0.34615386;stroke-miterlimit:4;stroke-dasharray:none;stroke-dashoffset:0;stroke-opacity:1"
       id="path2285-88-1-2"
       cx="-159.42006"
       cy="210.21848"
       r="2.0769231" />
    <circle
       style="opacity:1;fill:#000000;fill-opacity:0.95098039;fill-rule:evenodd;stroke:#000000;stroke-width:0.34615386;stroke-miterlimit:4;stroke-dasharray:none;stroke-dashoffset:0;stroke-opacity:1"
       id="path2285-88-1-7"
       cx="-159.42006"
       cy="186.11761"
       r="2.0769231" />
    <circle
       style="opacity:1;fill:#000000;fill-opacity:0.95098039;fill-rule:evenodd;stroke:#000000;stroke-width:0.34615386;stroke-miterlimit:4;stroke-dasharray:none;stroke-dashoffset:0;stroke-opacity:1"
       id="path2285-88-1-0"
       cx="-136.73018"
       cy="186.11761"
       r="2.0769231" />
    <circle
       style="opacity:1;fill:#000000;fill-opacity:0.95098039;fill-rule:evenodd;stroke:#000000;stroke-width:0.34615386;stroke-miterlimit:4;stroke-dasharray:none;stroke-dashoffset:0;stroke-opacity:1"
       id="path2285-88-1-9"
       cx="-114.04028"
       cy="186.11761"
       r="2.0769231" />
    <circle
       style="opacity:1;fill:#000000;fill-opacity:0.95098039;fill-rule:evenodd;stroke:#000000;stroke-width:0.34615386;stroke-miterlimit:4;stroke-dasharray:none;stroke-dashoffset:0;stroke-opacity:1"
       id="path2285-88-1-3"
       cx="-114.04028"
       cy="210.21848"
       r="2.0769231" />
    <circle
       style="opacity:1;fill:#000000;fill-opacity:0.95098039;fill-rule:evenodd;stroke:#000000;stroke-width:0.34615386;stroke-miterlimit:4;stroke-dasharray:none;stroke-dashoffset:0;stroke-opacity:1"
       id="path2285-88-1-6"
       cx="-136.73018"
       cy="210.21848"
       r="2.0769231" />
    <circle
       style="opacity:1;fill:#ffff00;fill-opacity:0.95098039;fill-rule:evenodd;stroke:#000000;stroke-width:0.34615386;stroke-miterlimit:4;stroke-dasharray:none;stroke-dashoffset:0;stroke-opacity:1"
       id="path2285-88-1-06"
       cx="-136.73018"
       cy="234.31934"
       r="2.0769231" />
    <circle
       style="opacity:1;fill:#000000;fill-opacity:0.95098039;fill-rule:evenodd;stroke:#000000;stroke-width:0.34615386;stroke-miterlimit:4;stroke-dasharray:none;stroke-dashoffset:0;stroke-opacity:1"
       id="path2285-88-1-9-8"
       cx="-91.35038"
       cy="186.11761"
       r="2.0769231" />
    <circle
       style="opacity:1;fill:#ffff00;fill-opacity:0.95098039;fill-rule:evenodd;stroke:#000000;stroke-width:0.34615386;stroke-miterlimit:4;stroke-dasharray:none;stroke-dashoffset:0;stroke-opacity:1"
       id="path2285-88-1-06-7"
       cx="-114.04028"
       cy="234.31934"
       r="2.0769231" />
    <circle
       style="opacity:1;fill:#ffff00;fill-opacity:0.95098039;fill-rule:evenodd;stroke:#000000;stroke-width:0.34615386;stroke-miterlimit:4;stroke-dasharray:none;stroke-dashoffset:0;stroke-opacity:1"
       id="path2285-88-1-06-9"
       cx="-91.35038"
       cy="234.31934"
       r="2.0769231" />
    <circle
       style="opacity:1;fill:#ffff00;fill-opacity:0.95098039;fill-rule:evenodd;stroke:#000000;stroke-width:0.34615386;stroke-miterlimit:4;stroke-dasharray:none;stroke-dashoffset:0;stroke-opacity:1"
       id="path2285-88-1-06-2"
       cx="-91.35038"
       cy="211.08771"
       r="2.0769231" />
    <circle
       style="opacity:1;fill:#ff0000;fill-opacity:1;fill-rule:evenodd;stroke:#ff0000;stroke-width:0.34615386;stroke-miterlimit:4;stroke-dasharray:none;stroke-dashoffset:0;stroke-opacity:1"
       id="path2285-0"
       cx="-158.75974"
       cy="246.53996"
       r="2.0769231" />
    <circle
       style="opacity:1;fill:#ff0000;fill-opacity:1;fill-rule:evenodd;stroke:#ff0000;stroke-width:0.34615386;stroke-miterlimit:4;stroke-dasharray:none;stroke-dashoffset:0;stroke-opacity:1"
       id="path2285-88-6"
       cx="-37.926655"
       cy="196.87384"
       r="2.0769231" />
    <path
       style="fill:none;stroke:#fd0000;stroke-width:1.10587001;stroke-linecap:butt;stroke-linejoin:miter;stroke-miterlimit:4;stroke-dasharray:none;stroke-opacity:1"
       d="m -103.73995,211.23072 33.547644,-8.15578"
       id="path2326-6"
       inkscape:connector-curvature="0"
       inkscape:transform-center-x="-16.885268"
       inkscape:transform-center-y="-4.0639419" />
    <circle
       style="opacity:1;fill:#ff0000;fill-opacity:1;fill-rule:evenodd;stroke:#ff0000;stroke-width:0.34615386;stroke-miterlimit:4;stroke-dasharray:none;stroke-dashoffset:0;stroke-opacity:1"
       id="path2285-6-4"
       cx="-67.903076"
       cy="202.17311"
       r="2.0769231" />
    <path
       style="fill:none;stroke:#fd0000;stroke-width:0.89488292;stroke-linecap:butt;stroke-linejoin:miter;stroke-miterlimit:4;stroke-dasharray:none;stroke-opacity:1"
       d="m -130.90067,221.91533 12.65643,-5.02791 12.65641,-5.0279"
       id="path2326-9"
       inkscape:connector-curvature="0"
       inkscape:transform-center-x="-12.581337"
       inkscape:transform-center-y="-4.9274098"
       sodipodi:nodetypes="ccc" />
    <circle
       style="opacity:1;fill:#ff0000;fill-opacity:1;fill-rule:evenodd;stroke:#ff0000;stroke-width:0.34615386;stroke-miterlimit:4;stroke-dasharray:none;stroke-dashoffset:0;stroke-opacity:1"
       id="path2285-6"
       cx="-132.18954"
       cy="222.19868"
       r="2.0769231" />
    <circle
       style="opacity:1;fill:#ff0000;fill-opacity:1;fill-rule:evenodd;stroke:#ff0000;stroke-width:0.34615386;stroke-miterlimit:4;stroke-dasharray:none;stroke-dashoffset:0;stroke-opacity:1"
       id="path2285-88"
       cx="-105.53662"
       cy="211.59135"
       r="2.0769231" />
    <g
       id="g1237"
       transform="translate(-192.38988,140.22917)">
      <g
         word-spacing="normal"
         letter-spacing="normal"
         font-size-adjust="none"
         font-stretch="normal"
         font-weight="normal"
         font-variant="normal"
         font-style="normal"
         stroke-miterlimit="10.433"
         xml:space="preserve"
         transform="matrix(0.17315123,0,0,-0.17315123,-30.301465,136.66555)"
         id="g1235"
         style="font-style:normal;font-variant:normal;font-weight:normal;font-stretch:normal;letter-spacing:normal;word-spacing:normal;text-anchor:start;fill:none;fill-opacity:1;fill-rule:evenodd;stroke:#000000;stroke-linecap:butt;stroke-linejoin:miter;stroke-miterlimit:10.43299961;stroke-dasharray:none;stroke-dashoffset:0;stroke-opacity:1"><path
           id="path1233"
           d="m 470.61,421.95 0.21,1.28 3.39,13.56 c 0.43,1.74 0.54,1.89 2.68,1.89 h 4.79 c 4.14,0 6.78,-1.34 6.78,-4.78 0,-1.95 -1,-6.23 -2.94,-8.03 -2.5,-2.23 -5.48,-2.64 -7.69,-2.64 h -7.01 l -0.21,-1.28 h 8.47 c 7.08,0 14,5.17 14,10.75 0,3.84 -3.28,7.53 -9.81,7.53 h -16.14 c -0.95,0 -1.5,0 -1.5,-0.95 0,-0.6 0.45,-0.6 1.45,-0.6 0.64,0 1.55,-0.04 2.14,-0.09 0.8,-0.11 1.1,-0.25 1.1,-0.8 0,-0.2 -0.05,-0.36 -0.21,-0.95 l -6.67,-26.75 c -0.5,-1.95 -0.59,-2.34 -4.53,-2.34 -0.84,0 -1.39,0 -1.39,-0.96 0,-0.59 0.59,-0.59 0.73,-0.59 1.41,0 4.94,0.16 6.33,0.16 1.05,0 2.14,-0.07 3.19,-0.07 1.11,0 2.2,-0.09 3.25,-0.09 0.34,0 0.98,0 0.98,1 0,0.55 -0.43,0.55 -1.39,0.55 -1.84,0 -3.23,0 -3.23,0.89 0,0.29 0.09,0.54 0.14,0.84 z"
           inkscape:connector-curvature="0"
           style="fill:#000000;stroke-width:0" /></g>
    </g>
  </g>
</svg>
