<svg xmlns="http://www.w3.org/2000/svg" xmlns:xlink="http://www.w3.org/1999/xlink" version="1.1" width="2418" height="1103" viewBox="0 0 2418 1103">
<path transform="matrix(.1,0,0,-.1,0,1103)" d="M7610.9 6601.07H16374.07V6997.918H7610.9Z" fill="#ffffff" fill-rule="evenodd"/>
<path transform="matrix(.1,0,0,-.1,0,1103)" stroke-width="28.346" stroke-linecap="butt" stroke-miterlimit="10" stroke-linejoin="miter" fill="none" stroke="#000000" d="M7610.9 6601.07H16374.07V6997.918H7610.9Z"/>
<text xml:space="preserve" transform="matrix(1 0 -0 1 0 1103)" font-size="19.8422" font-family="Helvetica" font-weight="bold"><tspan y="-678.532" x="1078.48 1089.5122 1097.2308 1102.747 1113.7792 1125.9027 1138.0263 1143.5424 1154.5746 1165.6068 1177.7304 1189.8539 1200.8861 1211.9183 1224.0419 1229.558 1240.5902 1251.6224 1259.3411 1270.3733 1281.4055 1286.9216 1297.9539 1308.9861">srj_poisson_solver_class</tspan></text>
<path transform="matrix(.1,0,0,-.1,0,1103)" d="M7610.9 6487.69H16374.07V6601.0729H7610.9Z" fill="#ffffff" fill-rule="evenodd"/>
<path transform="matrix(.1,0,0,-.1,0,1103)" stroke-width="28.346" stroke-linecap="butt" stroke-miterlimit="10" stroke-linejoin="miter" fill="none" stroke="#000000" d="M7610.9 6487.69H16374.07V6601.0729H7610.9Z"/>
<path transform="matrix(.1,0,0,-.1,0,1103)" d="M7610.9 5977.46H16374.07V6487.687H7610.9Z" fill="#ffffff" fill-rule="evenodd"/>
<path transform="matrix(.1,0,0,-.1,0,1103)" stroke-width="28.346" stroke-linecap="butt" stroke-miterlimit="10" stroke-linejoin="miter" fill="none" stroke="#000000" d="M7610.9 5977.46H16374.07V6487.687H7610.9Z"/>
<text xml:space="preserve" transform="matrix(1 0 -0 1 0 1103)" font-size="15.8738" font-family="Courier"><tspan y="-633.463" x="765.342 774.8663 784.39059 793.91488 803.43917 812.96347 822.48776 832.012 841.5363 851.0606 860.5849 870.1092 879.6335 889.1578 898.68209 908.20639 917.73068 927.25497 936.77926 946.3035 955.8278 965.3521 974.8764 984.4007 993.925 1003.4493 1012.9736 1022.49789 1032.0221 1041.5464 1051.0707 1060.595 1070.1193 1079.6436 1089.1679 1098.6921 1108.2164 1117.7407 1127.265 1136.7893 1146.3136 1155.8379 1165.3622 1174.8865 1184.4108 1193.935 1203.4594 1212.9837 1222.5079 1232.0322 1241.5565 1251.0808 1260.6051 1270.1294 1279.6537 1289.178">+&#x003c;&#x003c;constructor&#x003e;&#x003e; construct_srj_poisson_solver(msh_:mesh,</tspan><tspan y="-610.786" x="765.342 774.8663 784.39059 793.91488 803.43917 812.96347 822.48776 832.012 841.5363 851.0606 860.5849 870.1092 879.6335 889.1578 898.68209 908.20639 917.73068 927.25497 936.77926 946.3035 955.8278 965.3521 974.8764 984.4007 993.925 1003.4493 1012.9736 1022.49789 1032.0221 1041.5464 1051.0707 1060.595 1070.1193 1079.6436 1089.1679 1098.6921 1108.2164 1117.7407 1127.265 1136.7893 1146.3136 1155.8379 1165.3622 1174.8865 1184.4108 1193.935 1203.4594 1212.9837 1222.5079 1232.0322 1241.5565 1251.0808 1260.6051 1270.1294 1279.6537 1289.178 1298.7023 1308.2266 1317.7509 1327.2752 1336.7994 1346.3237 1355.848 1365.3723 1374.8966 1384.4209 1393.9452 1403.4695 1412.9938 1422.5181 1432.0424 1441.5667 1451.091 1460.6152 1470.1395 1479.6638 1489.1881 1498.7124 1508.2367">                                              spf_:problem): srj_poisson_solver</tspan></text>
<path transform="matrix(.1,0,0,-.1,0,1103)" d="M3033.02 2891.29H8413.09V3288.134H3033.02Z" fill="#ffffff" fill-rule="evenodd"/>
<path transform="matrix(.1,0,0,-.1,0,1103)" stroke-width="28.346" stroke-linecap="butt" stroke-miterlimit="10" stroke-linejoin="miter" fill="none" stroke="#000000" d="M3033.02 2891.29H8413.09V3288.134H3033.02Z"/>
<text xml:space="preserve" transform="matrix(1 0 -0 1 0 1103)" font-size="19.8422" font-family="Helvetica" font-weight="bold"><tspan y="-307.554" x="546.392 564.03176 575.064 586.0963">mesh</tspan></text>
<path transform="matrix(.1,0,0,-.1,0,1103)" d="M3033.02 2777.91H8413.09V2891.293H3033.02Z" fill="#ffffff" fill-rule="evenodd"/>
<path transform="matrix(.1,0,0,-.1,0,1103)" stroke-width="28.346" stroke-linecap="butt" stroke-miterlimit="10" stroke-linejoin="miter" fill="none" stroke="#000000" d="M3033.02 2777.91H8413.09V2891.293H3033.02Z"/>
<path transform="matrix(.1,0,0,-.1,0,1103)" d="M3033.02 1587.38H8413.09V2777.92H3033.02Z" fill="#ffffff" fill-rule="evenodd"/>
<path transform="matrix(.1,0,0,-.1,0,1103)" stroke-width="28.346" stroke-linecap="butt" stroke-miterlimit="10" stroke-linejoin="miter" fill="none" stroke="#000000" d="M3033.02 1587.38H8413.09V2777.92H3033.02Z"/>
<text xml:space="preserve" transform="matrix(1 0 -0 1 0 1103)" font-size="15.8738" font-family="Courier"><tspan y="-262.484" x="307.554 317.07829 326.60258 336.12687 345.65116 355.17546 364.69975 374.22404 383.74833 393.2726 402.7969 412.3212 421.8455 431.36979 440.89408 450.41838 459.94267 469.46696 478.99125 488.51554 498.03984 507.56413 517.0884 526.6127 536.13699 545.66128 555.18557 564.70986 574.23416 583.7584 593.2827 602.807 612.3313 621.8556 631.3799 640.9042 650.42849 659.95278 669.47708 679.00137 688.52566">+&#x003c;&#x003c;constructor&#x003e;&#x003e; construct_mesh(nxf_:int,</tspan><tspan y="-239.8074" x="307.554 317.07829 326.60258 336.12687 345.65116 355.17546 364.69975 374.22404 383.74833 393.2726 402.7969 412.3212 421.8455 431.36979 440.89408 450.41838 459.94267 469.46696 478.99125 488.51554 498.03984 507.56413 517.0884 526.6127 536.13699 545.66128 555.18557 564.70986 574.23416 583.7584 593.2827 602.807 612.3313 621.8556 631.3799 640.9042 650.42849 659.95278 669.47708 679.00137 688.52566">                                nyf_:int,</tspan><tspan y="-217.1308" x="307.554 317.07829 326.60258 336.12687 345.65116 355.17546 364.69975 374.22404 383.74833 393.2726 402.7969 412.3212 421.8455 431.36979 440.89408 450.41838 459.94267 469.46696 478.99125 488.51554 498.03984 507.56413 517.0884 526.6127 536.13699 545.66128 555.18557 564.70986 574.23416 583.7584 593.2827 602.807 612.3313 621.8556 631.3799 640.9042 650.42849 659.95278 669.47708 679.00137 688.52566 698.0499 707.5742 717.0985 726.6228 736.1471 745.6714 755.1957">                                nx_:int,ny_:int,</tspan><tspan y="-194.4542" x="307.554 317.07829 326.60258 336.12687 345.65116 355.17546 364.69975 374.22404 383.74833 393.2726 402.7969 412.3212 421.8455 431.36979 440.89408 450.41838 459.94267 469.46696 478.99125 488.51554 498.03984 507.56413 517.0884 526.6127 536.13699 545.66128 555.18557 564.70986 574.23416 583.7584 593.2827 602.807 612.3313 621.8556 631.3799 640.9042 650.42849 659.95278 669.47708 679.00137 688.52566">                                l1_:real,</tspan><tspan y="-171.77759" x="307.554 317.07829 326.60258 336.12687 345.65116 355.17546 364.69975 374.22404 383.74833 393.2726 402.7969 412.3212 421.8455 431.36979 440.89408 450.41838 459.94267 469.46696 478.99125 488.51554 498.03984 507.56413 517.0884 526.6127 536.13699 545.66128 555.18557 564.70986 574.23416 583.7584 593.2827 602.807 612.3313 621.8556 631.3799 640.9042 650.42849 659.95278 669.47708 679.00137 688.52566">                                l2_:real)</tspan></text>
<path transform="matrix(.1,0,0,-.1,0,1103)" d="M14.1719 4762.13H7847.59L8017.67 4592.05V4280.25H14.1719" fill="#ffffff" fill-rule="evenodd"/>
<path transform="matrix(.1,0,0,-.1,0,1103)" stroke-width="28.346" stroke-linecap="butt" stroke-miterlimit="10" stroke-linejoin="miter" fill="none" stroke="#000000" d="M14.1719 4762.13H7847.59L8017.67 4592.05V4280.25H14.1719Z"/>
<path transform="matrix(.1,0,0,-.1,0,1103)" stroke-width="14.173" stroke-linecap="butt" stroke-miterlimit="10" stroke-linejoin="miter" fill="none" stroke="#000000" d="M7847.59 4762.13V4592.05H8017.67"/>
<text xml:space="preserve" transform="matrix(1 0 -0 1 0 1103)" font-size="15.8738" font-family="Courier"><tspan y="-446.591" x="11.3383 20.86258 30.38686 39.91114 49.43542 58.9597 68.48398 78.008258 87.53253 97.05681 106.581089 116.10536 125.62964 135.15392 144.67819 154.20247 163.72675 173.25102 182.7753 192.29958 201.82386 211.34813 220.8724 230.39669 239.92096 249.44524 258.9695 268.4938 278.0181 287.5424 297.06669 306.59098 316.11528 325.63957 335.16386 344.68815 354.21244 363.73674 373.26103 382.7853 392.3096 401.8339 411.3582 420.88249 430.40678 439.93107 449.45536 458.97966 468.50395 478.02824 487.55253 497.0768 506.6011 516.12539 525.64968 535.17398 544.69827 554.22256 563.7468 573.2711 582.7954 592.3197 601.844 611.3683 620.8926 630.4169 639.94119 649.46548 658.98977 668.51406 678.0383">An object of the mesh class is passed to the "srj_poisson_solver_class"</tspan></text>
<path transform="matrix(.1,0,0,-.1,0,1103)" d="M18750.9 6661.31H24164.99V7284.919H18750.9Z" fill="#ffffff" fill-rule="evenodd"/>
<path transform="matrix(.1,0,0,-.1,0,1103)" stroke-width="28.346" stroke-linecap="butt" stroke-miterlimit="10" stroke-linejoin="miter" fill="none" stroke="#000000" d="M18750.9 6661.31H24164.99V7284.919H18750.9Z"/>
<text xml:space="preserve" transform="matrix(1 0 -0 1 0 1103)" font-size="15.8738" font-family="Courier"><tspan y="-710.351" x="2093.41 2102.934 2112.4583 2121.9825 2131.5067 2141.0308 2150.555 2160.079 2169.6033 2179.1275 2188.6517">&#x003c;&#x003c;Module &#x003e;&#x003e;</tspan></text>
<text xml:space="preserve" transform="matrix(1 0 -0 1 0 1103)" font-size="19.8422" font-family="Helvetica" font-weight="bold"><tspan y="-684.5561" x="1941.799 1959.4387 1971.5623 1983.6858 1995.8093 2001.3255 2012.3577 2017.8738 2028.906 2036.6246 2042.1408 2053.173 2065.2967 2077.4202 2082.9364 2093.9686 2105.0008 2117.1243 2129.2479 2140.28 2151.3123 2163.4359 2168.952 2179.9842 2191.0164 2198.7349 2209.767 2220.7994 2232.9229 2245.0465 2256.0787 2268.2022 2279.2344 2285.8419 2296.874 2307.9063 2325.546 2337.6695">module srj_poisson_solver_cpu_data_mod</tspan></text>
<path transform="matrix(.1,0,0,-.1,0,1103)" d="M18750.9 6547.93H24164.99V6661.3176H18750.9Z" fill="#ffffff" fill-rule="evenodd"/>
<path transform="matrix(.1,0,0,-.1,0,1103)" stroke-width="28.346" stroke-linecap="butt" stroke-miterlimit="10" stroke-linejoin="miter" fill="none" stroke="#000000" d="M18750.9 6547.93H24164.99V6661.3176H18750.9Z"/>
<path transform="matrix(.1,0,0,-.1,0,1103)" d="M18750.9 5810.93H24164.99V6547.9265H18750.9Z" fill="#ffffff" fill-rule="evenodd"/>
<path transform="matrix(.1,0,0,-.1,0,1103)" stroke-width="28.346" stroke-linecap="butt" stroke-miterlimit="10" stroke-linejoin="miter" fill="none" stroke="#000000" d="M18750.9 5810.93H24164.99V6547.9265H18750.9Z"/>
<text xml:space="preserve" transform="matrix(1 0 -0 1 0 1103)" font-size="15.8738" font-family="Courier"><tspan y="-639.486" x="1879.34 1888.8643 1898.3886 1907.9129 1917.4371 1926.9614 1936.4857 1946.01 1955.5343 1965.0586 1974.5829 1984.1072 1993.6315 2003.1558 2012.68 2022.2044 2031.7286 2041.2529 2050.777 2060.3013 2069.8255 2079.3497 2088.8739 2098.398 2107.922 2117.4464 2126.9705 2136.4947 2146.0189 2155.543 2165.0672 2174.5914">+&#x003c;&#x003c;subroutine&#x003e;&#x003e; sweep_on_nodes()</tspan><tspan y="-616.809" x="1879.34 1888.8643 1898.3886 1907.9129 1917.4371 1926.9614 1936.4857 1946.01 1955.5343 1965.0586 1974.5829 1984.1072 1993.6315 2003.1558 2012.68 2022.2044 2031.7286 2041.2529 2050.777 2060.3013 2069.8255 2079.3497 2088.8739 2098.398 2107.922 2117.4464 2126.9705 2136.4947 2146.0189 2155.543 2165.0672 2174.5914 2184.1156 2193.6397">+&#x003c;&#x003c;subroutine&#x003e;&#x003e; impose_2nd_order()</tspan><tspan y="-594.132" x="1879.34 1888.8643 1898.3886 1907.9129 1917.4371 1926.9614 1936.4857 1946.01 1955.5343 1965.0586 1974.5829 1984.1072 1993.6315 2003.1558 2012.68 2022.2044 2031.7286 2041.2529 2050.777 2060.3013 2069.8255 2079.3497 2088.8739 2098.398 2107.922 2117.4464 2126.9705 2136.4947 2146.0189 2155.543 2165.0672 2174.5914 2184.1156 2193.6397">+&#x003c;&#x003c;subroutine&#x003e;&#x003e; impose_4th_order()</tspan></text>
<path transform="matrix(.1,0,0,-.1,0,1103)" stroke-width="28.346" stroke-linecap="butt" stroke-dasharray="113.384" stroke-miterlimit="10" stroke-linejoin="miter" fill="none" stroke="#000000" d="M16384 6547.93 18627.5 6530.93"/>
<path transform="matrix(.1,0,0,-.1,0,1103)" stroke-width="28.346" stroke-linecap="butt" stroke-miterlimit="10" stroke-linejoin="miter" fill="none" stroke="#000000" d="M18447.7 6461.43 18675 6530.57 18448.8 6603.15"/>
<text xml:space="preserve" transform="matrix(1 0 -0 1 0 1103)" font-size="15.8738" font-family="Courier"><tspan y="-616.526" x="1767.27 1776.7943 1786.3186 1795.8429 1805.3672 1814.8915">{uses}</tspan></text>
<path transform="matrix(.1,0,0,-.1,0,1103)" d="M9141.59 2877.12H14958.189V3273.964H9141.59Z" fill="#ffffff" fill-rule="evenodd"/>
<path transform="matrix(.1,0,0,-.1,0,1103)" stroke-width="28.346" stroke-linecap="butt" stroke-miterlimit="10" stroke-linejoin="miter" fill="none" stroke="#000000" d="M9141.59 2877.12H14958.189V3273.964H9141.59Z"/>
<text xml:space="preserve" transform="matrix(1 0 -0 1 0 1103)" font-size="19.8422" font-family="Helvetica" font-weight="bold"><tspan y="-306.137" x="1171.92 1190.6511 1201.6834 1207.1995 1219.323 1231.4465">Weight</tspan></text>
<path transform="matrix(.1,0,0,-.1,0,1103)" d="M9141.59 2763.73H14958.189V2877.117H9141.59Z" fill="#ffffff" fill-rule="evenodd"/>
<path transform="matrix(.1,0,0,-.1,0,1103)" stroke-width="28.346" stroke-linecap="butt" stroke-miterlimit="10" stroke-linejoin="miter" fill="none" stroke="#000000" d="M9141.59 2763.73H14958.189V2877.117H9141.59Z"/>
<path transform="matrix(.1,0,0,-.1,0,1103)" d="M9141.59 2026.74H14958.189V2763.732H9141.59Z" fill="#ffffff" fill-rule="evenodd"/>
<path transform="matrix(.1,0,0,-.1,0,1103)" stroke-width="28.346" stroke-linecap="butt" stroke-miterlimit="10" stroke-linejoin="miter" fill="none" stroke="#000000" d="M9141.59 2026.74H14958.189V2763.732H9141.59Z"/>
<text xml:space="preserve" transform="matrix(1 0 -0 1 0 1103)" font-size="15.8738" font-family="Courier"><tspan y="-261.067" x="918.411 927.9353 937.4596 946.9839 956.5082 966.0325 975.55679 985.08108 994.60537 1004.12966 1013.65396 1023.1782 1032.7025 1042.2268 1051.7511 1061.2754 1070.7997 1080.324 1089.8483 1099.3726 1108.8969 1118.4212 1127.9454 1137.4697 1146.994 1156.5183 1166.0426 1175.5669 1185.0912 1194.6155 1204.1398 1213.6641 1223.1884 1232.7127 1242.2369 1251.7612 1261.2855 1270.8098 1280.3341 1289.8584 1299.3827 1308.907 1318.4313 1327.9556">+&#x003c;&#x003c;constructor&#x003e;&#x003e; constructor(srj_layers:int,</tspan><tspan y="-238.38999" x="918.411 927.9353 937.4596 946.9839 956.5082 966.0325 975.55679 985.08108 994.60537 1004.12966 1013.65396 1023.1782 1032.7025 1042.2268 1051.7511 1061.2754 1070.7997 1080.324 1089.8483 1099.3726 1108.8969 1118.4212 1127.9454 1137.4697 1146.994 1156.5183 1166.0426 1175.5669 1185.0912 1194.6155 1204.1398 1213.6641 1223.1884 1232.7127 1242.2369 1251.7612 1261.2855 1270.8098 1280.3341 1289.8584 1299.3827 1308.907 1318.4313">                             srj_grids:int,</tspan><tspan y="-215.71298" x="918.411 927.9353 937.4596 946.9839 956.5082 966.0325 975.55679 985.08108 994.60537 1004.12966 1013.65396 1023.1782 1032.7025 1042.2268 1051.7511 1061.2754 1070.7997 1080.324 1089.8483 1099.3726 1108.8969 1118.4212 1127.9454 1137.4697 1146.994 1156.5183 1166.0426 1175.5669 1185.0912 1194.6155 1204.1398 1213.6641 1223.1884 1232.7127 1242.2369 1251.7612 1261.2855 1270.8098 1280.3341 1289.8584 1299.3827 1308.907 1318.4313 1327.9556 1337.4799 1347.0042 1356.5285 1366.0527 1375.577 1385.1013 1394.6256 1404.1499">                             read_from_file:logical)</tspan></text>
<path transform="matrix(.1,0,0,-.1,0,1103)" stroke-width="28.346" stroke-linecap="butt" stroke-miterlimit="10" stroke-linejoin="miter" fill="none" stroke="#000000" d="M8333.73 5624.25V4535.36H8328.05V3288.14"/>
<path transform="matrix(.1,0,0,-.1,0,1103)" d="M8333.73 5981.01 8401.75 5782.59 8333.73 5584.16 8265.7 5782.59" fill="#ffffff" fill-rule="evenodd"/>
<path transform="matrix(.1,0,0,-.1,0,1103)" stroke-width="28.346" stroke-linecap="butt" stroke-miterlimit="10" stroke-linejoin="miter" fill="none" stroke="#000000" d="M8333.73 5981.01 8401.75 5782.59 8333.73 5584.16 8265.7 5782.59Z"/>
<path transform="matrix(.1,0,0,-.1,0,1103)" stroke-width="28.346" stroke-linecap="butt" stroke-miterlimit="10" stroke-linejoin="miter" fill="none" stroke="#000000" d="M11365.3 5628.5V4539.61H11359.7V3292.39"/>
<path transform="matrix(.1,0,0,-.1,0,1103)" d="M11365.3 5985.26 11433.4 5786.84 11365.3 5588.41 11297.3 5786.84" fill="#ffffff" fill-rule="evenodd"/>
<path transform="matrix(.1,0,0,-.1,0,1103)" stroke-width="28.346" stroke-linecap="butt" stroke-miterlimit="10" stroke-linejoin="miter" fill="none" stroke="#000000" d="M11365.3 5985.26 11433.4 5786.84 11365.3 5588.41 11297.3 5786.84Z"/>
<path transform="matrix(.1,0,0,-.1,0,1103)" d="M15519.4 2862.95H20572.08V3259.7979H15519.4Z" fill="#ffffff" fill-rule="evenodd"/>
<path transform="matrix(.1,0,0,-.1,0,1103)" stroke-width="28.346" stroke-linecap="butt" stroke-miterlimit="10" stroke-linejoin="miter" fill="none" stroke="#000000" d="M15519.4 2862.95H20572.08V3259.7979H15519.4Z"/>
<text xml:space="preserve" transform="matrix(1 0 -0 1 0 1103)" font-size="19.8422" font-family="Helvetica" font-weight="bold"><tspan y="-304.72" x="1765.44 1777.5635 1785.2821 1797.4057 1809.5292 1815.0453 1826.0775">problem</tspan></text>
<path transform="matrix(.1,0,0,-.1,0,1103)" d="M15519.4 2749.56H20572.08V2862.943H15519.4Z" fill="#ffffff" fill-rule="evenodd"/>
<path transform="matrix(.1,0,0,-.1,0,1103)" stroke-width="28.346" stroke-linecap="butt" stroke-miterlimit="10" stroke-linejoin="miter" fill="none" stroke="#000000" d="M15519.4 2749.56H20572.08V2862.943H15519.4Z"/>
<path transform="matrix(.1,0,0,-.1,0,1103)" d="M15519.4 2466.1H20572.08V2749.561H15519.4Z" fill="#ffffff" fill-rule="evenodd"/>
<path transform="matrix(.1,0,0,-.1,0,1103)" stroke-width="28.346" stroke-linecap="butt" stroke-miterlimit="10" stroke-linejoin="miter" fill="none" stroke="#000000" d="M15519.4 2466.1H20572.08V2749.561H15519.4Z"/>
<text xml:space="preserve" transform="matrix(1 0 -0 1 0 1103)" font-size="15.8738" font-family="Courier"><tspan y="-259.65" x="1556.2 1565.7243 1575.2485 1584.7728 1594.2971 1603.8214 1613.3457 1622.87 1632.3943 1641.9186 1651.4429 1660.9672 1670.4915 1680.0158 1689.54 1699.0643 1708.5886 1718.1129 1727.6372 1737.1615 1746.6858 1756.2101 1765.7344 1775.2587 1784.783 1794.3073 1803.8316 1813.3558 1822.8801 1832.4044 1841.9287 1851.453 1860.9773 1870.5016 1880.0259 1889.5502 1899.0745 1908.5988 1918.123 1927.6473 1937.1716 1946.6959 1956.2202 1965.7445 1975.2688">+&#x003c;&#x003c;constructor&#x003e;&#x003e; problem(file_name:character)</tspan></text>
<path transform="matrix(.1,0,0,-.1,0,1103)" d="M14144.7 467.711H17560.4V864.555H14144.7Z" fill="#ffffff" fill-rule="evenodd"/>
<path transform="matrix(.1,0,0,-.1,0,1103)" stroke-width="28.346" stroke-linecap="butt" stroke-miterlimit="10" stroke-linejoin="miter" fill="none" stroke="#000000" d="M14144.7 467.711H17560.4V864.555H14144.7Z"/>
<text xml:space="preserve" transform="matrix(1 0 -0 1 0 1103)" font-size="19.8422" font-family="Helvetica" font-weight="bold"><tspan y="-65.1957" x="1529.56 1544.9973 1552.716 1558.232 1564.8395 1575.8717 1586.9039 1594.6226 1605.6548 1616.687 1628.8106 1634.3267">write_result</tspan></text>
<path transform="matrix(.1,0,0,-.1,0,1103)" d="M14144.7 354.324H17560.4V467.711H14144.7Z" fill="#ffffff" fill-rule="evenodd"/>
<path transform="matrix(.1,0,0,-.1,0,1103)" stroke-width="28.346" stroke-linecap="butt" stroke-miterlimit="10" stroke-linejoin="miter" fill="none" stroke="#000000" d="M14144.7 354.324H17560.4V467.711H14144.7Z"/>
<path transform="matrix(.1,0,0,-.1,0,1103)" d="M14144.7 70.8672H17560.4V354.32423H14144.7Z" fill="#ffffff" fill-rule="evenodd"/>
<path transform="matrix(.1,0,0,-.1,0,1103)" stroke-width="28.346" stroke-linecap="butt" stroke-miterlimit="10" stroke-linejoin="miter" fill="none" stroke="#000000" d="M14144.7 70.8672H17560.4V354.32423H14144.7Z"/>
<text xml:space="preserve" transform="matrix(1 0 -0 1 0 1103)" font-size="15.8738" font-family="Courier"><tspan y="-20.1258" x="1418.72 1428.2443 1437.7686 1447.2929 1456.8171 1466.3414 1475.8657 1485.39 1494.9143 1504.4386 1513.9629 1523.4872 1533.0115 1542.5358 1552.06 1561.5844 1571.1087 1580.6329 1590.1572 1599.6815 1609.2058 1618.7301 1628.2544 1637.7787 1647.303 1656.8273 1666.3516 1675.8759 1685.4002 1694.9244">+&#x003c;&#x003c;constructor&#x003e;&#x003e; constructor()</tspan></text>
<path transform="matrix(.1,0,0,-.1,0,1103)" d="M6817.21 637.785H12197.279V1034.6289H6817.21Z" fill="#ffffff" fill-rule="evenodd"/>
<path transform="matrix(.1,0,0,-.1,0,1103)" stroke-width="28.346" stroke-linecap="butt" stroke-miterlimit="10" stroke-linejoin="miter" fill="none" stroke="#000000" d="M6817.21 637.785H12197.279V1034.6289H6817.21Z"/>
<text xml:space="preserve" transform="matrix(1 0 -0 1 0 1103)" font-size="19.8422" font-family="Helvetica" font-weight="bold"><tspan y="-82.2035" x="895.039 906.0713 913.7899 921.50857 933.63217 941.35079 952.38308 960.1017 971.134 982.16629 994.28988 999.80599">error_result</tspan></text>
<path transform="matrix(.1,0,0,-.1,0,1103)" d="M6817.21 524.402H12197.279V637.785H6817.21Z" fill="#ffffff" fill-rule="evenodd"/>
<path transform="matrix(.1,0,0,-.1,0,1103)" stroke-width="28.346" stroke-linecap="butt" stroke-miterlimit="10" stroke-linejoin="miter" fill="none" stroke="#000000" d="M6817.21 524.402H12197.279V637.785H6817.21Z"/>
<path transform="matrix(.1,0,0,-.1,0,1103)" d="M6817.21 14.1719H12197.279V524.4019H6817.21Z" fill="#ffffff" fill-rule="evenodd"/>
<path transform="matrix(.1,0,0,-.1,0,1103)" stroke-width="28.346" stroke-linecap="butt" stroke-miterlimit="10" stroke-linejoin="miter" fill="none" stroke="#000000" d="M6817.21 14.1719H12197.279V524.4019H6817.21Z"/>
<text xml:space="preserve" transform="matrix(1 0 -0 1 0 1103)" font-size="15.8738" font-family="Courier"><tspan y="-37.1332" x="685.973 695.4973 705.0216 714.5459 724.0702 733.5945 743.1188 752.64309 762.16738 771.69168 781.21597 790.74026 800.2645 809.7888 819.3131 828.8374 838.3617 847.886 857.4103 866.9346 876.45889 885.98318 895.50747 905.03176 914.556 924.0803 933.6046 943.1289 952.6532 962.1775 971.7018 981.2261 990.75039 1000.27468 1009.79898 1019.32327 1028.8475 1038.3718 1047.8961 1057.4204 1066.9447 1076.469 1085.9933 1095.5176 1105.0419 1114.5662 1124.0905 1133.6148">+&#x003c;&#x003c;constructor&#x003e;&#x003e; construct_error_result(nx_:int,</tspan><tspan y="-14.456602" x="685.973 695.4973 705.0216 714.5459 724.0702 733.5945 743.1188 752.64309 762.16738 771.69168 781.21597 790.74026 800.2645 809.7888 819.3131 828.8374 838.3617 847.886 857.4103 866.9346 876.45889 885.98318 895.50747 905.03176 914.556 924.0803 933.6046 943.1289 952.6532 962.1775 971.7018 981.2261 990.75039 1000.27468 1009.79898 1019.32327 1028.8475 1038.3718 1047.8961 1057.4204 1066.9447 1076.469 1085.9933 1095.5176 1105.0419 1114.5662 1124.0905 1133.6148">                                        ny_:int)</tspan></text>
<path transform="matrix(.1,0,0,-.1,0,1103)" stroke-width="28.346" stroke-linecap="butt" stroke-dasharray="113.384" stroke-miterlimit="10" stroke-linejoin="miter" fill="none" stroke="#000000" d="M3472.39 3288.14V4570.79H10516.4V5871.8"/>
<path transform="matrix(.1,0,0,-.1,0,1103)" stroke-width="28.346" stroke-linecap="butt" stroke-miterlimit="10" stroke-linejoin="miter" fill="none" stroke="#000000" d="M10587.2 5692.55 10516.4 5919.32 10445.5 5692.55"/>
<path transform="matrix(.1,0,0,-.1,0,1103)" stroke-width="28.346" stroke-linecap="butt" stroke-miterlimit="10" stroke-linejoin="miter" fill="none" stroke="#000000" d="M16100.5 5581.73V3288.14"/>
<path transform="matrix(.1,0,0,-.1,0,1103)" d="M16100.5 5938.49 16168.6 5740.07 16100.5 5541.64 16032.5 5740.07" fill="#ffffff" fill-rule="evenodd"/>
<path transform="matrix(.1,0,0,-.1,0,1103)" stroke-width="28.346" stroke-linecap="butt" stroke-miterlimit="10" stroke-linejoin="miter" fill="none" stroke="#000000" d="M16100.5 5938.49 16168.6 5740.07 16100.5 5541.64 16032.5 5740.07Z"/>
<path transform="matrix(.1,0,0,-.1,0,1103)" stroke-width="28.346" stroke-linecap="butt" stroke-miterlimit="10" stroke-linejoin="miter" fill="none" stroke="#000000" d="M15165.1 5595.91V878.727"/>
<path transform="matrix(.1,0,0,-.1,0,1103)" d="M15165.1 5952.66 15233.1 5754.24 15165.1 5555.82 15097.1 5754.24" fill="#ffffff" fill-rule="evenodd"/>
<path transform="matrix(.1,0,0,-.1,0,1103)" stroke-width="28.346" stroke-linecap="butt" stroke-miterlimit="10" stroke-linejoin="miter" fill="none" stroke="#000000" d="M15165.1 5952.66 15233.1 5754.24 15165.1 5555.82 15097.1 5754.24Z"/>
<path transform="matrix(.1,0,0,-.1,0,1103)" stroke-width="28.346" stroke-linecap="butt" stroke-miterlimit="10" stroke-linejoin="miter" fill="none" stroke="#000000" d="M8846.08 5606.41V3406.77H8843.95V1048.8"/>
<path transform="matrix(.1,0,0,-.1,0,1103)" d="M8846.08 5963.16 8914.11 5764.74 8846.08 5566.32 8778.05 5764.74" fill="#ffffff" fill-rule="evenodd"/>
<path transform="matrix(.1,0,0,-.1,0,1103)" stroke-width="28.346" stroke-linecap="butt" stroke-miterlimit="10" stroke-linejoin="miter" fill="none" stroke="#000000" d="M8846.08 5963.16 8914.11 5764.74 8846.08 5566.32 8778.05 5764.74Z"/>
<path transform="matrix(.1,0,0,-.1,0,1103)" d="M8659.7 10612H15349.36V11008.844H8659.7Z" fill="#ffffff" fill-rule="evenodd"/>
<path transform="matrix(.1,0,0,-.1,0,1103)" stroke-width="28.346" stroke-linecap="butt" stroke-miterlimit="10" stroke-linejoin="miter" fill="none" stroke="#000000" d="M8659.7 10612H15349.36V11008.844H8659.7Z"/>
<text xml:space="preserve" transform="matrix(1 0 -0 1 0 1103)" font-size="19.8422" font-family="Helvetica" font-weight="bold"><tspan y="-1079.63" x="1089.63 1107.2698 1119.3933 1130.4255 1141.4578 1149.1764 1154.6925 1165.7247 1177.8483 1189.9718 1195.4879 1206.5202 1217.5524 1229.6759 1241.7994 1252.8317 1263.8639 1275.9874 1281.5036 1292.5358 1303.568">mg_srj_poisson_solver</tspan></text>
<path transform="matrix(.1,0,0,-.1,0,1103)" d="M8659.7 10328.6H15349.36V10612.061H8659.7Z" fill="#ffffff" fill-rule="evenodd"/>
<path transform="matrix(.1,0,0,-.1,0,1103)" stroke-width="28.346" stroke-linecap="butt" stroke-miterlimit="10" stroke-linejoin="miter" fill="none" stroke="#000000" d="M8659.7 10328.6H15349.36V10612.061H8659.7Z"/>
<text xml:space="preserve" transform="matrix(1 0 -0 1 0 1103)" font-size="15.8738" font-family="Courier"><tspan y="-1045.9" x="870.222 879.7463 889.27059 898.79489 908.31918 917.84347 927.36776 936.892 946.4163 955.9406 965.4649 974.9892 984.5135 994.0378 1003.5621 1013.08639 1022.61068 1032.1349 1041.6592 1051.1835 1060.7078 1070.232 1079.7564 1089.2807 1098.8049 1108.3292 1117.8535 1127.3778 1136.9021 1146.4264 1155.9507 1165.475 1174.9993 1184.5236 1194.0479 1203.5722 1213.0964 1222.6207 1232.145">-solver_arr: srj_poisson_solver (array)</tspan></text>
<path transform="matrix(.1,0,0,-.1,0,1103)" stroke-width="14.173" stroke-linecap="butt" stroke-miterlimit="10" stroke-linejoin="miter" fill="none" stroke="#000000" d="M8702.22 10334.2H12958.4"/>
<path transform="matrix(.1,0,0,-.1,0,1103)" d="M8659.7 9818.35H15349.36V10328.576H8659.7Z" fill="#ffffff" fill-rule="evenodd"/>
<path transform="matrix(.1,0,0,-.1,0,1103)" stroke-width="28.346" stroke-linecap="butt" stroke-miterlimit="10" stroke-linejoin="miter" fill="none" stroke="#000000" d="M8659.7 9818.35H15349.36V10328.576H8659.7Z"/>
<text xml:space="preserve" transform="matrix(1 0 -0 1 0 1103)" font-size="15.8738" font-family="Courier"><tspan y="-1017.55" x="870.222 879.7463 889.27059 898.79489 908.31918 917.84347 927.36776 936.892 946.4163 955.9406 965.4649 974.9892 984.5135 994.0378 1003.5621 1013.08639 1022.61068 1032.1349 1041.6592 1051.1835 1060.7078 1070.232 1079.7564 1089.2807 1098.8049 1108.3292 1117.8535 1127.3778 1136.9021 1146.4264 1155.9507 1165.475 1174.9993 1184.5236 1194.0479 1203.5722 1213.0964 1222.6207 1232.145 1241.6693 1251.1936 1260.7179 1270.2422 1279.7665 1289.2908 1298.8151 1308.3394 1317.8637 1327.388 1336.9122 1346.4365 1355.9608 1365.4851 1375.0094">+&#x003c;&#x003c;constructor&#x003e;&#x003e; construct_mg_srj_poisson_solver(msh_,</tspan><tspan y="-994.873" x="870.222 879.7463 889.27059 898.79489 908.31918 917.84347 927.36776 936.892 946.4163 955.9406 965.4649 974.9892 984.5135 994.0378 1003.5621 1013.08639 1022.61068 1032.1349 1041.6592 1051.1835 1060.7078 1070.232 1079.7564 1089.2807 1098.8049 1108.3292 1117.8535 1127.3778 1136.9021 1146.4264 1155.9507 1165.475 1174.9993 1184.5236 1194.0479 1203.5722 1213.0964 1222.6207 1232.145 1241.6693 1251.1936 1260.7179 1270.2422 1279.7665 1289.2908 1298.8151 1308.3394 1317.8637 1327.388 1336.9122 1346.4365 1355.9608 1365.4851 1375.0094 1384.5337 1394.058 1403.5823 1413.1066 1422.6309 1432.1552">                                                 num_level_)</tspan></text>
<path transform="matrix(.1,0,0,-.1,0,1103)" stroke-width="28.346" stroke-linecap="butt" stroke-miterlimit="10" stroke-linejoin="miter" fill="none" stroke="#000000" d="M12004.5 9419.07V7058.16"/>
<path transform="matrix(.1,0,0,-.1,0,1103)" d="M12004.5 9775.83 12072.6 9577.41 12004.5 9378.98 11936.5 9577.41" fill="#ffffff" fill-rule="evenodd"/>
<path transform="matrix(.1,0,0,-.1,0,1103)" stroke-width="28.346" stroke-linecap="butt" stroke-miterlimit="10" stroke-linejoin="miter" fill="none" stroke="#000000" d="M12004.5 9775.83 12072.6 9577.41 12004.5 9378.98 11936.5 9577.41Z"/>
<path transform="matrix(.1,0,0,-.1,0,1103)" d="M2862.95 6303.44H5405.59V6927.0529H2862.95Z" fill="#ffffff" fill-rule="evenodd"/>
<path transform="matrix(.1,0,0,-.1,0,1103)" stroke-width="28.346" stroke-linecap="butt" stroke-miterlimit="10" stroke-linejoin="miter" fill="none" stroke="#000000" d="M2862.95 6303.44H5405.59V6927.0529H2862.95Z"/>
<text xml:space="preserve" transform="matrix(1 0 -0 1 0 1103)" font-size="15.8738" font-family="Courier"><tspan y="-674.564" x="308.66 318.1843 327.7086 337.23289 346.75718 356.28147 365.80577 375.33006 384.85435 394.37864 403.90293 413.42723 422.9515 432.4758 442.0001 451.52439 461.04869 470.57298 480.09727 489.62156 499.14585 508.67015">&#x003c;&#x003c;abstract interface&#x003e;&#x003e;</tspan></text>
<text xml:space="preserve" transform="matrix(1 0 -0 1 0 1103)" font-size="19.8422" font-family="Helvetica" font-weight="bold" font-style="italic"><tspan y="-648.7691" x="329.0686 346.7083 357.74058 363.2567 375.3803 386.41258 397.44483 409.56843 415.08457 426.11683 437.14909 444.8677 455.89997 462.50743 474.631 486.7546">main_solver_func</tspan></text>
<path transform="matrix(.1,0,0,-.1,0,1103)" d="M2862.95 6190.06H5405.59V6303.443H2862.95Z" fill="#ffffff" fill-rule="evenodd"/>
<path transform="matrix(.1,0,0,-.1,0,1103)" stroke-width="28.346" stroke-linecap="butt" stroke-miterlimit="10" stroke-linejoin="miter" fill="none" stroke="#000000" d="M2862.95 6190.06H5405.59V6303.443H2862.95Z"/>
<path transform="matrix(.1,0,0,-.1,0,1103)" d="M2862.95 6076.68H5405.59V6190.063H2862.95Z" fill="#ffffff" fill-rule="evenodd"/>
<path transform="matrix(.1,0,0,-.1,0,1103)" stroke-width="28.346" stroke-linecap="butt" stroke-miterlimit="10" stroke-linejoin="miter" fill="none" stroke="#000000" d="M2862.95 6076.68H5405.59V6190.063H2862.95Z"/>
<path transform="matrix(.1,0,0,-.1,0,1103)" d="M4753.63 6842.02H5518.9738V6955.407H4753.63Z" fill="#ffffff" fill-rule="evenodd"/>
<path transform="matrix(.1,0,0,-.1,0,1103)" stroke-width="28.346" stroke-linecap="butt" stroke-dasharray="85.038" stroke-miterlimit="10" stroke-linejoin="miter" fill="none" stroke="#000000" d="M4753.63 6842.02H5518.9738V6955.407H4753.63Z"/>
<path transform="matrix(.1,0,0,-.1,0,1103)" stroke-width="28.346" stroke-linecap="butt" stroke-dasharray="113.384" stroke-miterlimit="10" stroke-linejoin="miter" fill="none" stroke="#000000" d="M5706.56 6530.21H6621.63V6516.04H7568.38"/>
<path transform="matrix(.1,0,0,-.1,0,1103)" d="M5706.56 6643.59 5479.79 6530.21 5706.56 6416.83" fill="#ffffff" fill-rule="evenodd"/>
<path transform="matrix(.1,0,0,-.1,0,1103)" stroke-width="28.346" stroke-linecap="butt" stroke-miterlimit="10" stroke-linejoin="miter" fill="none" stroke="#000000" d="M5706.56 6643.59 5479.79 6530.21 5706.56 6416.83Z"/>
</svg>
